<svg xmlns="http://www.w3.org/2000/svg" version="1.1" xmlns:xlink="http://www.w3.org/1999/xlink"
     xmlns:svgjs="http://svgjs.com/svgjs" width="60" height="60" x="0" y="0" viewBox="0 0 496 496"
     style="enable-background:new 0 0 512 512" xml:space="preserve" class=""><g><linearGradient id="a" gradientUnits="userSpaceOnUse" x1="248" x2="248" y1="496" y2="0"><stop offset="0" stop-color="#9f2fff"></stop><stop
    offset="1" stop-color="#0bb1d3"></stop></linearGradient><path
    d="m0 80h48v64h400v-64h48v-80h-496zm64 16.808594c15.648438 3.191406 28 15.542968 31.191406 31.191406h-31.191406zm47.359375 31.191406c-3.527344-24.472656-22.886719-43.832031-47.359375-47.359375v-32.640625h104.398438c-.238282 2.664062-.398438 5.328125-.398438 8 0 29.761719 14.886719 56.0625 37.558594 72zm122.113281-80c3.3125 9.289062 12.113282 16 22.527344 16 4.414062 0 8 3.585938 8 8s-3.585938 8-8 8-8-3.585938-8-8h-16c0 10.414062 6.710938 19.214844 16 22.527344v17.472656h16v-17.472656c9.289062-3.3125 16-12.113282 16-22.527344 0-13.230469-10.769531-24-24-24h71.527344c.296875 2.65625.472656 5.328125.472656 8 0 39.703125-32.296875 72-72 72s-72-32.296875-72-72c0-2.671875.183594-5.34375.480469-8zm110.527344 8c0-2.671875-.160156-5.335938-.398438-8h88.398438v32.640625c-24.472656 3.527344-43.832031 22.886719-47.359375 47.359375h-78.199219c22.671875-15.9375 37.558594-42.238281 37.558594-72zm56.808594 72c3.191406-15.648438 15.542968-28 31.191406-31.191406v31.191406zm-384.808594-112h464v48h-32v-32h-400v32h-32zm280 160c-6.167969 0-11.742188 2.40625-16 6.238281-4.257812-3.839843-9.832031-6.238281-16-6.238281s-11.742188 2.40625-16 6.238281c-4.257812-3.839843-9.832031-6.238281-16-6.238281s-11.742188 2.40625-16 6.238281c-4.257812-3.839843-9.832031-6.238281-16-6.238281-13.230469 0-24 10.769531-24 24v8h-128v176h112v-16h-48.640625c-3.527344-24.472656-22.886719-43.832031-47.359375-47.359375v-49.28125c24.472656-3.527344 43.832031-22.886719 47.359375-47.359375h86.199219c-22.671875 15.9375-37.558594 42.238281-37.558594 72s14.886719 56.0625 37.558594 72h-21.558594v16c0 12.046875 3.976562 23.976562 11.199219 33.59375l12.800781 17.070312v13.335938h-16v48h160v-48h-16v-13.335938l12.800781-17.0625c7.222657-9.625 11.199219-21.554687 11.199219-33.601562h96v-176h-128v-8c0-13.230469-10.769531-24-24-24zm0 16c4.414062 0 8 3.585938 8 8v8h-16v-8c0-4.414062 3.585938-8 8-8zm-32 0c4.414062 0 8 3.585938 8 8v8h-16v-8c0-4.414062 3.585938-8 8-8zm-32 0c4.414062 0 8 3.585938 8 8v8h-16v-8c0-4.414062 3.585938-8 8-8zm-40 8c0-4.414062 3.585938-8 8-8s8 3.585938 8 8v8h-16zm-96.808594 168h-31.191406v-31.191406c15.648438 3.191406 28 15.542968 31.191406 31.191406zm-31.191406-112.808594v-31.191406h31.191406c-3.191406 15.648438-15.542968 28-31.191406 31.191406zm112 40.808594c0-39.703125 32.296875-72 72-72 37.535156 0 68.40625 28.871094 71.671875 65.574219-9.121094 3.402343-15.671875 12.128906-15.671875 22.425781v50.167969c-3.832031 1.488281-7.335938 3.527343-10.617188 5.832031h-45.382812c-39.703125 0-72-32.296875-72-72zm152 184h-128v-16h128zm8-96c0 8.601562-2.839844 17.128906-8 24l-16 21.335938v18.664062h-96v-18.664062l-16-21.34375c-5.160156-6.863282-8-15.390626-8-23.992188h86.792969c-4.273438 7.425781-6.792969 15.9375-6.792969 24.984375v7.015625h16v-7.015625c0-15.746094 10.664062-29.410156 25.9375-33.222656l6.0625-1.523438v-62.238281c0-4.414062 3.585938-8 8-8s8 3.585938 8 8zm-.335938-94.632812c-2.03125-27.007813-16.257812-50.632813-37.222656-65.367188h86.199219c3.527344 24.472656 22.886719 43.832031 47.359375 47.359375v49.28125c-24.472656 3.527344-43.832031 22.886719-47.359375 47.359375h-32.640625v-56c0-10.535156-6.871094-19.414062-16.335938-22.632812zm65.144532 78.632812c3.191406-15.648438 15.542968-28 31.191406-31.191406v31.191406zm31.191406-112.808594c-15.648438-3.191406-28-15.542968-31.191406-31.191406h31.191406zm-160 56.808594c0 10.414062-6.710938 19.214844-16 22.527344v17.472656h-16v-17.472656c-9.289062-3.3125-16-12.113282-16-22.527344h16c0 4.414062 3.585938 8 8 8s8-3.585938 8-8-3.585938-8-8-8c-13.230469 0-24-10.769531-24-24 0-10.414062 6.710938-19.214844 16-22.527344v-17.472656h16v17.472656c9.289062 3.3125 16 12.113282 16 22.527344h-16c0-4.414062-3.585938-8-8-8s-8 3.585938-8 8 3.585938 8 8 8c13.230469 0 24 10.769531 24 24zm0 0"
    fill="url(#a)" data-original="url(#a)" class=""></path></g></svg>
