<svg xmlns="http://www.w3.org/2000/svg" version="1.1" xmlns:xlink="http://www.w3.org/1999/xlink"
     xmlns:svgjs="http://svgjs.com/svgjs" width="60" height="60" x="0" y="0" viewBox="0 0 495 495.984"
     style="enable-background:new 0 0 512 512" xml:space="preserve" class=""><g><linearGradient id="a" gradientTransform="matrix(8 0 0 -8 -79.508 504)" gradientUnits="userSpaceOnUse" x1="36.5" x2="36.5" y1="1.002" y2="63"><stop offset="0" stop-color="#9f2fff"></stop><stop
    offset="1" stop-color="#0bb1d3"></stop></linearGradient><path
    d="m376.492188 16h-160.472657c-5.421875 0-10.878906.433594-16.222656 1.273438l-48 7.582031c-15.144531 2.382812-28.863281 9.375-39.679687 20.199219l-38.65625 38.65625c-5.792969 5.785156-8.976563 13.472656-8.976563 21.65625 0 16.878906 13.734375 30.625 30.632813 30.625 8.175781 0 15.863281-3.183594 21.65625-8.96875l7.382812-7.382813 1.609375 6.4375c1.230469 4.9375 3.992187 9.121094 7.644531 12.234375-10.742187 5.421875-20.300781 12.800781-28.269531 21.671875h-80.648437c-13.230469 0-24 10.769531-24 24v232c0 17.648437 14.351562 32 32 32h48v32h-32v16h256v-16h-32v-32h48c17.648437 0 32-14.351563 32-32v-232c0-13.230469-10.769532-24-24-24h-52.6875l39.589843-39.601563c10.578125-10.566406 24.640625-16.398437 39.601563-16.398437h21.496094v24h48v-127.984375h-48zm-239.136719 90.457031 6.746093-6.738281c5.941407-5.949219 13.460938-9.703125 21.605469-11.0625l-9.664062 33.816406c-.925781 3.253906-3.949219 5.527344-7.335938 5.527344-3.511719 0-6.550781-2.375-7.40625-5.785156zm34.066406 20.398438 11.101563-38.855469h30.632812c6.175781 0 12.359375 1.464844 17.886719 4.222656l17.273437 8.632813-30.855468 30.855469c-1.273438 1.273437-2.359376 2.664062-3.375 4.097656-11.851563-5.039063-24.65625-7.816406-37.601563-7.816406-1.894531 0-3.746094.175781-5.609375.289062.175781-.472656.410156-.929688.546875-1.425781zm5.070313 17.144531c11.128906 0 22.121093 2.472656 32.238281 6.921875-.0625.820313-.238281 1.613281-.238281 2.445313 0 16.878906 13.734374 30.625 30.632812 30.625 2.136719 0 4.230469-.238282 6.269531-.664063 7.273438 12.28125 11.097657 26.222656 11.097657 40.664063 0 44.113281-35.886719 80-80 80-44.113282 0-80-35.886719-80-80 0-44.113282 35.886718-79.992188 80-79.992188zm94.632812 64h33.367188v176h-256v-176h33.449218c-.882812 5.214844-1.449218 10.535156-1.449218 16 0 33.375 17.136718 62.792969 43.046874 80h-59.046874v48h224v-48h-59.046876c25.910157-17.207031 43.046876-46.625 43.046876-80 0-5.40625-.488282-10.753906-1.367188-16zm1.367188 112v16h-192v-16zm-256-136c0-4.414062 3.59375-8 8-8h68.992187c-2.9375 5.0625-5.398437 10.40625-7.390625 16h-53.601562v192h-16zm240 296h-160v-32h160zm80-64c0 8.824219-7.175782 16-16 16h-288c-8.824219 0-16-7.175781-16-16v-16h320zm0-232v200h-16v-192h-53.527344c-1.953125-5.527344-4.375-10.886719-7.34375-16h68.871094c4.40625 0 8 3.585938 8 8zm18.503906-96c-19.230469 0-37.3125 7.488281-50.910156 21.089844l-54.625 54.628906c-2.769532 2.761719-6.441407 4.28125-10.34375 4.28125-8.066407 0-14.632813-6.558594-14.632813-14.625 0-3.847656 1.558594-7.613281 4.289063-10.34375l32-32c7.550781-7.550781 11.710937-17.597656 11.710937-28.289062v-18.742188h-16v18.742188c0 1.402343-.167969 2.761718-.398437 4.113281l-17.882813-8.945313c-7.734375-3.863281-16.390625-5.910156-25.046875-5.910156h-40.785156c-14.96875 0-29.023438 5.832031-39.597656 16.40625l-27.3125 27.3125c-2.769532 2.761719-6.441407 4.28125-10.34375 4.28125-8.066407 0-14.632813-6.558594-14.632813-14.625 0-3.847656 1.558594-7.613281 4.289063-10.34375l38.664062-38.65625c8.414062-8.421875 19.085938-13.855469 30.863281-15.71875l48-7.585938c4.519531-.710937 9.136719-1.070312 13.726563-1.070312h160.464844v56zm37.496094-72h16v96h-16zm-224 264h16v-16c13.230468 0 24-10.769531 24-24 0-6.144531-2.320313-11.753906-6.128907-16 3.808594-4.246094 6.128907-9.855469 6.128907-16 0-13.230469-10.769532-24-24-24v-16h-16v16h-24v80h24zm-8-80h24c4.40625 0 8 3.585938 8 8s-3.59375 8-8 8h-24zm0 32h24c4.40625 0 8 3.585938 8 8s-3.59375 8-8 8h-24zm0 0"
    fill="url(#a)" data-original="url(#a)" class=""></path></g></svg>
