<svg xmlns="http://www.w3.org/2000/svg" version="1.1" xmlns:xlink="http://www.w3.org/1999/xlink"
     xmlns:svgjs="http://svgjs.com/svgjs" width="60" height="60" x="0" y="0" viewBox="0 0 62 62"
     style="enable-background:new 0 0 512 512" xml:space="preserve" class=""><g><linearGradient id="SVGID_1_" gradientUnits="userSpaceOnUse" x1="31" x2="31" y1="62" y2="0"><stop offset="0" stop-color="#9f2fff"></stop><stop
    offset="1" stop-color="#0bb1d3"></stop></linearGradient><path
    d="m28 44c0 1.103.897 2 2 2h2c2.206 0 4 1.794 4 4s-1.794 4-4 4v2h-2v-2c-2.206 0-4-1.794-4-4v-1h2v1c0 1.103.897 2 2 2h2c1.103 0 2-.897 2-2s-.897-2-2-2h-2c-2.206 0-4-1.794-4-4s1.794-4 4-4v-2h2v2c2.206 0 4 1.794 4 4h-2c0-1.103-.897-2-2-2h-2c-1.103 0-2 .897-2 2zm-28-18c0-5.428 1.428-10.752 4.136-15.449l-2.843-2.844c-.265-.265-.359-.655-.245-1.013.114-.356.418-.619.788-.681l12-2c.316-.053.642.05.871.279s.332.553.279.871l-2 12c-.062.37-.324.674-.681.788-.354.115-.747.021-1.013-.245l-1.227-1.227c-.812 1.775-1.381 3.62-1.715 5.52h7.65c1.11 0 2.07.613 2.589 1.512l4.531-2.589c.188-.107.385-.195.581-.284l-1.781-3.562.13-.393c.735-2.203 2.789-3.683 5.112-3.683h1.456l1.28 2.561 1.425-3.561h1.26c2.447 0 4.789.757 6.773 2.188l.621.447-2.023 5.365h.046c1.103 0 2 .897 2 2 1.654 0 3 1.346 3 3 0 .771-.301 1.468-.78 2 .48.532.78 1.229.78 2s-.301 1.468-.78 2c.48.532.78 1.229.78 2s-.301 1.468-.78 2c.48.532.78 1.229.78 2 0 .776-.304 1.478-.79 2.012 1.802 2.411 2.79 5.343 2.79 8.373v.615c0 7.72-6.28 14-14 14-5.418 0-10.116-3.099-12.443-7.612-11.282-4.95-18.557-16.044-18.557-28.388zm16 12h-4.622c1.522 2.484 3.521 4.688 5.931 6.472.527-2.502 1.737-4.805 3.53-6.698l-2.25-1.286c-.519.899-1.479 1.512-2.589 1.512zm27 9.385c0-2.703-.922-5.313-2.589-7.426-.136.018-.27.041-.411.041h-2c-1.654 0-3-1.346-3-3 0-.395.081-.77.22-1.116-.95-.258-1.708-.965-2.036-1.884h-5.77l-4.899 4.899c-2.267 2.267-3.515 5.281-3.515 8.486v.615c0 6.617 5.383 12 12 12s12-5.383 12-12zm-3-19.385h-4c-.552 0-1 .448-1 1s.448 1 1 1h4c.552 0 1-.448 1-1s-.448-1-1-1zm0 4h-4c-.552 0-1 .448-1 1s.448 1 1 1h2 2c.552 0 1-.448 1-1s-.448-1-1-1zm0 4h-2c-.552 0-1 .448-1 1s.448 1 1 1h2c.552 0 1-.448 1-1s-.448-1-1-1zm-8.586-10-.949.949c-.888.888-1.974 1.5-3.157 1.812l.539 3.239h5.337c.133-.374.335-.711.596-1-.48-.532-.78-1.229-.78-2s.301-1.468.78-2c-.26-.289-.463-.626-.596-1zm4.586 0h4c.552 0 1-.448 1-1s-.448-1-1-1h-.556c-.694 1.19-1.97 2-3.444 2zm-5.723-6h5.54l1.737-4.609c-1.471-.896-3.141-1.374-4.878-1.391zm-4.626.066c.312-.042.627-.066.943-.066h3.289l-2.5-5h-.22c-1.329 0-2.518.77-3.068 1.951zm-6.651 5.514v8.84l3.287 1.879 3.642-3.642-.609-3.657h-2.32v-2h2.515c1.336 0 2.592-.521 3.536-1.465l1.535-1.535h5.414c1.103 0 2-.897 2-2h-11.406c-.869 0-1.727.228-2.481.659zm-10.907-1.58c-.057.661-.093 1.327-.093 2 0 3.532.804 6.934 2.285 10h5.715c.552 0 1-.448 1-1v-10c0-.552-.448-1-1-1zm-6.093 2c0 10.856 6.014 20.681 15.504 25.667-.319-1.171-.504-2.397-.504-3.667v-.615c0-.225.022-.446.033-.67-6.915-4.667-11.033-12.361-11.033-20.715 0-4.056 1.004-8.095 2.903-11.681.148-.28.421-.474.735-.521.313-.043.632.057.855.282l.839.839 1.45-8.702-8.702 1.45 2.02 2.019c.327.326.387.834.146 1.229-2.778 4.545-4.246 9.762-4.246 15.085zm29-26h-2v2h2c15.99 0 29 13.01 29 29 0 5.321-1.468 10.538-4.246 15.086-.24.395-.18.902.146 1.229l2.019 2.019-8.702 1.45 1.45-8.701.838.838c.223.224.536.327.855.282.313-.048.587-.24.735-.521 1.901-3.586 2.905-7.626 2.905-11.682 0-13.785-11.215-25-25-25v2c12.683 0 23 10.317 23 23 0 3.326-.694 6.522-2.067 9.52l-1.226-1.227c-.266-.265-.658-.359-1.012-.245-.357.114-.62.418-.682.788l-2 12c-.053.318.051.643.279.871.19.189.445.293.708.293.055 0 .109-.005.164-.014l12-2c.37-.062.674-.324.788-.681s.02-.748-.245-1.013l-2.843-2.844c2.708-4.697 4.136-10.021 4.136-15.448 0-17.094-13.906-31-31-31zm-6 8v-2h-2v2zm4 0v-2h-2v2z"
    fill="url(#SVGID_1_)" data-original="url(#SVGID_1_)"></path></g></svg>
