<svg xmlns="http://www.w3.org/2000/svg" version="1.1" xmlns:xlink="http://www.w3.org/1999/xlink"
     xmlns:svgjs="http://svgjs.com/svgjs" width="60" height="60" x="0" y="0" viewBox="0 0 64 64"
     style="enable-background:new 0 0 512 512" xml:space="preserve" class=""><g><linearGradient id="SVGID_1_" gradientUnits="userSpaceOnUse" x1="32" x2="32" y1="63" y2="1"><stop offset="0" stop-color="#9f2fff"></stop><stop
    offset="1" stop-color="#0bb1d3"></stop></linearGradient><path
    d="m34 18c0-.551-.449-1-1-1h-2c-1.654 0-3-1.346-3-3s1.346-3 3-3v-2h2v2c1.654 0 3 1.346 3 3h-2c0-.551-.449-1-1-1h-2c-.551 0-1 .449-1 1s.449 1 1 1h2c1.654 0 3 1.346 3 3s-1.346 3-3 3v2h-2v-2c-1.654 0-3-1.346-3-3h2c0 .551.449 1 1 1h2c.551 0 1-.449 1-1zm-13-2c0-6.065 4.935-11 11-11s11 4.935 11 11-4.935 11-11 11-11-4.935-11-11zm2 0c0 4.962 4.038 9 9 9s9-4.038 9-9-4.038-9-9-9-9 4.038-9 9zm40 0c0 8.271-6.729 15-15 15-2.851 0-5.6-.811-8.001-2.333-2.052 1.301-4.437 2.112-6.999 2.282v4.161c1.272-1.3 3.042-2.11 5-2.11h5v1c0 1.074-.251 2.089-.685 3h2.685l-.001 6.184c1.162.414 2.001 1.514 2.001 2.816v13c0 2.206-1.794 4-4 4h-20c-2.206 0-4-1.794-4-4v-18c0-1.78 1.176-3.274 2.786-3.791-.499-.963-.786-2.052-.786-3.209v-1h5c1.958 0 3.728.81 5 2.111v-4.161c-2.562-.17-4.946-.982-6.999-2.282-2.401 1.521-5.15 2.332-8.001 2.332-8.271 0-15-6.729-15-15s6.729-15 15-15c2.851 0 5.6.811 8.001 2.333 2.319-1.469 5.057-2.333 7.999-2.333s5.68.864 7.999 2.333c2.401-1.522 5.15-2.333 8.001-2.333 8.271 0 15 6.729 15 15zm-31-13c-7.168 0-13 5.832-13 13s5.832 13 13 13 13-5.832 13-13-5.832-13-13-13zm14.95 13.993c-.044.661-.116 1.314-.243 1.949.095.03.191.058.293.058h2c.551 0 1-.449 1-1s-.449-1-1-1h-2c-.017 0-.033-.006-.05-.007zm-2.453 7.286c1.108.471 2.3.721 3.503.721 4.962 0 9-4.038 9-9s-4.038-9-9-9c-1.203 0-2.395.25-3.503.721.698 1.05 1.258 2.196 1.676 3.408.266-.076.541-.129.827-.129v-2h2v2c1.654 0 3 1.346 3 3h-2c0-.551-.449-1-1-1h-2c-.102 0-.198.028-.293.058.126.631.199 1.279.242 1.935.017.001.033.007.051.007h2c1.654 0 3 1.346 3 3s-1.346 3-3 3v2h-2v-2c-.286 0-.561-.053-.828-.13-.418 1.213-.977 2.359-1.675 3.409zm-27.447-9.272c.044-.661.116-1.314.243-1.948-.095-.03-.191-.059-.293-.059h-2c-.551 0-1 .449-1 1s.449 1 1 1h2c.017 0 .033.006.05.007zm2.453-7.286c-1.108-.471-2.3-.721-3.503-.721-4.962 0-9 4.038-9 9s4.038 9 9 9c1.203 0 2.395-.25 3.503-.721-.698-1.05-1.258-2.196-1.676-3.408-.267.076-.541.129-.827.129v2h-2v-2c-1.654 0-3-1.346-3-3h2c0 .551.449 1 1 1h2c.102 0 .198-.029.293-.058-.126-.631-.199-1.279-.242-1.935-.017-.001-.033-.007-.051-.007h-2c-1.654 0-3-1.346-3-3s1.346-3 3-3v-2h2v2c.286 0 .561.053.828.13.418-1.213.977-2.359 1.675-3.409zm2.752 19.659c-.537-.461-1.038-.961-1.505-1.492-1.485.716-3.105 1.112-4.75 1.112-6.065 0-11-4.935-11-11s4.935-11 11-11c1.645 0 3.265.396 4.75 1.112.467-.531.968-1.031 1.505-1.492-1.914-1.058-4.049-1.62-6.255-1.62-7.168 0-13 5.832-13 13s5.832 13 13 13c2.206 0 4.341-.562 6.255-1.62zm.846 7.62c.464 2.279 2.485 4 4.899 4h2.899c-.464-2.279-2.485-4-4.899-4zm-2.101 6c0 1.103.897 2 2 2h8v-2h-3c-1.902 0-3.627-.765-4.889-2h-.111c-1.103 0-2 .897-2 2zm2 20v-16c-.728 0-1.411-.195-2-.537v14.537c0 1.103.897 2 2 2zm22-10h-6c-1.103 0-2 .897-2 2s.897 2 2 2h6zm0-5c0-.552-.449-1-1-1h-19v16h18c1.103 0 2-.897 2-2v-2h-6c-2.206 0-4-1.794-4-4s1.794-4 4-4h6zm-11.899-7h2.899c2.415 0 4.435-1.721 4.899-4h-2.899c-2.415 0-4.435 1.721-4.899 4zm-.101 2v2h9.999l.001-4h-2.111c-1.263 1.235-2.988 2-4.889 2zm28-25c0-7.168-5.832-13-13-13-2.206 0-4.341.562-6.255 1.62.537.461 1.038.961 1.505 1.492 1.485-.716 3.105-1.112 4.75-1.112 6.065 0 11 4.935 11 11s-4.935 11-11 11c-1.645 0-3.265-.396-4.75-1.112-.467.531-.968 1.031-1.505 1.492 1.914 1.058 4.049 1.62 6.255 1.62 7.168 0 13-5.832 13-13zm-2.622 18.317c-.516-.825-1.405-1.317-2.378-1.317s-1.862.492-2.378 1.317l-4.234 6.775c-.254.407-.388.875-.388 1.353 0 1.409 1.146 2.555 2.554 2.555h.446v14 2h2v-2-16h-2.446c-.305 0-.554-.249-.554-.555 0-.104.029-.205.084-.293l4.234-6.774c.295-.473 1.068-.473 1.363 0l4.234 6.773c.056.089.085.191.085.294 0 .306-.249.555-.554.555h-2.446v16 2h2v-2-14h.446c1.408 0 2.554-1.146 2.554-2.555 0-.479-.134-.946-.388-1.354zm-45.932 8.683h-2.446v16h2v-14h.446c1.408 0 2.554-1.146 2.554-2.555 0-.479-.134-.946-.388-1.354l-4.234-6.774c-.516-.825-1.405-1.317-2.378-1.317s-1.862.492-2.378 1.317l-4.234 6.775c-.254.407-.388.875-.388 1.353 0 1.409 1.146 2.555 2.554 2.555h.446v16h2v-18h-2.446c-.305 0-.554-.249-.554-.555 0-.104.029-.205.084-.293l4.234-6.774c.295-.473 1.068-.473 1.363 0l4.234 6.773c.056.089.085.191.085.294 0 .306-.249.555-.554.555z"
    fill="url(#SVGID_1_)" data-original="url(#SVGID_1_)"></path></g></svg>
